# xmcd
#
# Track frame offsets:
#	150
#	14102
#	32415
#	46489
#	64288
#	81517
#	97208
#	112244
#	126153
#	140692
#	150321
#	163559
#	178558
#	198850
#	216766
#
# Disc length: 3129 seconds
#
# Revision: 0
# Processed by: cddbd v1.5.1PL2 Copyright (c) Steve Scherf et al.
# Submitted via: EasyCDDAExtractor 9.1.1.2
#
DISCID=da0c370f
DTITLE=Karen Taylor-Good - How Many Women
DYEAR=2006
DGENRE=Country
TTITLE0=Hooked on You
TTITLE1=You Never Said Anything About Love\n
TTITLE2=God's Refrigerator
TTITLE3=Oh, Guinevere
TTITLE4=How Many Women
TTITLE5=If You Do (with Collin Raye]\n
TTITLE6=Man Enough
TTITLE7=Love Is a Verb
TTITLE8=Wild Blue Yonder
TTITLE9=Bless His Heart
TTITLE10=I'm Tellin' Ellen
TTITLE11=Deep Blue Desert Sky
TTITLE12=On Angel's Wings
TTITLE13=One Mile Apart
TTITLE14=One Mile Apart (Spanish Version)
EXTD=
EXTT0=
EXTT1=
EXTT2=
EXTT3=
EXTT4=
EXTT5=
EXTT6=
EXTT7=
EXTT8=
EXTT9=
EXTT10=
EXTT11=
EXTT12=
EXTT13=
EXTT14=
PLAYORDER=
